:SAMPLES-PER-SECOND 30
:FULLY-SPECIFIED
:DEGREES
339
root  3.97367 38.2572 5.12649 32.9214 -86.3127 -43.1081
RightUpLeg  2.67648 -4.336 -23.9838
RightLeg  12.9005 2.1848 -0.298529
RightFoot  16.4223 -6.83406 27.6114
RightToes  -1.28057e-009 0 -3.6325e-017
Spine  13.6605 0.415302 -1.90967
Spine1  -2.10977 0.177133 -2.53447
HEad  3.6537 -1.24044 0.784699
LeftShoulder1  1.99146 -6.53427 -12.8081
LeftArm  20.3207 25.6751 -48.7448
LeftForeArm  64.4201 -75.2807 -36.083
LeftHand  -1.58635 -2.02155 24.7556
RightShoulder  1.7422 3.20364 19.5874
RightArm  3.83716 -28.6392 54.9987
RightForeArm  40.4452 59.6585 15.4381
RightHand  -1.87801 1.55078 -30.9222
LeftUpLeg  4.72884 -0.619685 20.164
LeftLeg  17.509 -3.04959 1.16312
LeftFoot  -11.5093 0.0407901 -18.6985
LeftToes  -7.27922e-012 9.28972e-011 -9.04533e-012
340
root  3.77371 38.2548 4.3494 44.7236 -84.9717 -54.0098
RightUpLeg  4.40658 -9.54808 -21.7326
RightLeg  10.1978 5.81336 -0.636676
RightFoot  12.1643 -6.06774 28.9543
RightToes  -1.28057e-009 0 -3.6325e-017
Spine  12.6082 0.164486 0.141679
Spine1  -1.72963 0.415819 -2.99821
HEad  3.95466 -2.10739 1.09018
LeftShoulder1  1.95583 -6.09306 -13.4041
LeftArm  21.4514 25.2434 -47.1103
LeftForeArm  53.7205 -68.9205 -23.3752
LeftHand  -1.65561 -2.07544 25.6186
RightShoulder  1.70446 2.88546 20.3427
RightArm  5.75755 -27.2369 55.34
RightForeArm  33.7581 52.4938 11.9122
RightHand  -1.87289 1.53956 -30.885
LeftUpLeg  4.6963 1.00758 23.3245
LeftLeg  15.2187 -5.09958 1.31782
LeftFoot  -10.2563 0.249537 -19.7352
LeftToes  -7.27922e-012 9.28972e-011 -9.04533e-012
341
root  3.66128 38.233 3.73353 51.2228 -84.1069 -59.9696
RightUpLeg  5.26025 -10.8843 -19.643
RightLeg  8.60152 6.04121 -0.917216
RightFoot  10.1019 -5.14636 27.088
RightToes  -1.28057e-009 0 -3.6325e-017
Spine  12.0619 0.0379138 1.51253
Spine1  -1.46429 0.531207 -2.71533
HEad  4.88403 -2.48607 0.716905
LeftShoulder1  1.95418 -5.69235 -14.3646
LeftArm  21.4253 24.7895 -46.1207
LeftForeArm  46.351 -61.6059 -16.3464
LeftHand  -1.71109 -2.18779 26.0686
RightShoulder  1.65896 2.72637 20.2932
RightArm  9.53236 -24.7522 55.1917
RightForeArm  28.6295 44.541 9.03841
RightHand  -1.81508 1.50509 -30.1218
LeftUpLeg  4.82658 1.21139 25.0986
LeftLeg  13.5078 -5.25378 2.20243
LeftFoot  -9.03322 0.474441 -20.6871
LeftToes  -7.27922e-012 9.28972e-011 -9.04533e-012
342
root  3.57763 38.2167 3.27158 50.099 -83.7689 -58.3311
RightUpLeg  6.01156 -11.7407 -18.7676
RightLeg  7.2138 6.0989 -0.923377
RightFoot  8.42348 -4.45893 25.5492
RightToes  -1.28057e-009 0 -3.6325e-017
Spine  11.6665 -0.0784062 1.36961
Spine1  -1.63227 0.302416 -1.29852
HEad  7.27474 -2.56265 0.10198
LeftShoulder1  1.95696 -5.36721 -15.2631
LeftArm  20.4903 24.7886 -45.9417
LeftForeArm  40.019 -54.2125 -12.2216
LeftHand  -1.79873 -2.62166 25.9304
RightShoulder  1.58615 2.57204 19.733
RightArm  14.8118 -22.0831 54.8133
RightForeArm  24.0435 36.4888 6.82734
RightHand  -1.74043 1.50367 -28.9443
LeftUpLeg  4.90376 2.15188 25.744
LeftLeg  11.8394 -6.13981 3.05757
LeftFoot  -7.79381 0.716776 -21.4304
LeftToes  -7.27922e-012 9.28972e-011 -9.04533e-012
343
root  3.51031 38.2063 2.93725 45.2207 -83.5912 -52.6156
RightUpLeg  6.55457 -12.5389 -18.6921
RightLeg  5.76297 5.61592 -0.606363
RightFoot  6.53083 -3.96061 25.1061
RightToes  -1.28057e-009 0 -3.6325e-017
Spine  11.0295 -0.199982 0.818043
Spine1  -2.02775 0.00115859 0.0743799
HEad  10.3159 -2.85527 -0.220202
LeftShoulder1  1.95895 -5.12194 -15.9539
LeftArm  19.5966 24.7153 -46.0323
LeftForeArm  35.3505 -47.794 -9.73598
LeftHand  -1.8815 -2.99972 25.9052
RightShoulder  1.50947 2.32221 19.5266
RightArm  19.8488 -20.3243 53.9391
RightForeArm  19.1672 30.2058 5.50878
RightHand  -1.58786 1.25761 -27.4325
LeftUpLeg  4.68715 5.63137 26.354
LeftLeg  9.86859 -9.60354 3.31208
LeftFoot  -6.67708 0.949109 -22.0841
LeftToes  -7.27922e-012 9.28972e-011 -9.04533e-012
344
root  3.48261 38.1878 2.72288 41.6417 -83.4274 -48.0478
RightUpLeg  6.70404 -12.8324 -18.5987
RightLeg  4.28982 4.37857 -0.353385
RightFoot  5.4245 -3.64027 24.6086
RightToes  -1.28057e-009 0 -3.6325e-017
Spine  10.2082 -0.239768 0.917419
Spine1  -2.14753 -0.072919 0.563407
HEad  12.4936 -3.4554 -0.242017
LeftShoulder1  1.95555 -4.88344 -16.6148
LeftArm  19.3203 24.1196 -45.8976
LeftForeArm  32.1961 -42.9055 -8.22891
LeftHand  -1.88663 -2.95619 26.1039
RightShoulder  1.45192 2.05692 19.7458
RightArm  22.7335 -19.7196 52.6182
RightForeArm  14.9475 26.2696 4.80693
RightHand  -1.36149 0.77589 -25.4257
LeftUpLeg  4.37577 10.3347 27.2552
LeftLeg  7.94795 -14.2655 3.01305
LeftFoot  -5.8922 1.14153 -22.9725
LeftToes  -7.27922e-012 9.28972e-011 -9.04533e-012
345
root  3.5028 38.1718 2.61647 38.7526 -83.5235 -44.4338
RightUpLeg  6.79743 -12.9389 -18.7019
RightLeg  2.84743 3.58959 -0.316871
RightFoot  5.24593 -3.51642 24.0459
RightToes  -1.28057e-009 0 -3.6325e-017
Spine  9.59034 -0.183508 1.24036
Spine1  -1.84847 0.00633545 0.584308
HEad  13.2395 -3.97085 -0.196457
LeftShoulder1  1.93944 -4.60798 -17.2577
LeftArm  19.3188 23.3559 -45.6472
LeftForeArm  29.5829 -39.4649 -7.33988
LeftHand  -1.8251 -2.72048 25.9864
RightShoulder  1.42213 1.9101 19.9179
RightArm  23.3016 -19.6059 51.3045
RightForeArm  12.4107 23.4888 4.58593
RightHand  -1.18797 0.448478 -23.5013
LeftUpLeg  4.33843 13.7158 27.7506
LeftLeg  6.39242 -17.5792 2.62786
LeftFoot  -5.33252 1.31101 -24.0529
LeftToes  -7.27922e-012 9.28972e-011 -9.04533e-012
346
root  3.56148 38.1771 2.59203 33.5948 -83.8821 -38.8104
RightUpLeg  6.90856 -13.2196 -19.3955
RightLeg  1.68603 3.65693 -0.315574
RightFoot  5.19905 -3.52055 24.1377
RightToes  -1.28057e-009 0 -3.6325e-017
Spine  9.27894 -0.14158 1.17678
Spine1  -1.43527 0.0355034 0.593776
HEad  13.2031 -4.18062 -0.132759
LeftShoulder1  1.90804 -4.36237 -17.6323
LeftArm  19.3308 22.7937 -45.689
LeftForeArm  26.4888 -36.6418 -6.73413
LeftHand  -1.78422 -2.66298 25.6032
RightShoulder  1.4185 1.8852 19.977
RightArm  20.3557 -19.2935 50.0852
RightForeArm  13.2195 20.3589 6.02422
RightHand  -1.12404 0.359213 -22.5954
LeftUpLeg  4.39068 15.1252 27.3203
LeftLeg  5.2319 -18.8211 2.50738
LeftFoot  -4.7686 1.47349 -24.8158
LeftToes  -7.27922e-012 9.28972e-011 -9.04533e-012
347
root  3.64963 38.208 2.62853 27.1516 -84.2312 -31.8283
RightUpLeg  6.67063 -13.5463 -20.2347
RightLeg  0.923248 3.77082 -0.369946
RightFoot  5.22426 -3.59391 24.5849
RightToes  -1.28057e-009 0 -3.6325e-017
Spine  8.98143 -0.169289 1.10819
Spine1  -1.15474 0.0161363 0.397785
HEad  13.1845 -4.22131 -0.0632315
LeftShoulder1  1.88191 -4.24314 -17.6715
LeftArm  19.8081 22.2311 -46.1324
LeftForeArm  22.2955 -33.4774 -6.14881
LeftHand  -1.80845 -2.80396 25.5084
RightShoulder  1.42164 1.88088 20.0627
RightArm  12.9545 -18.7548 48.877
RightForeArm  17.7561 16.3513 9.17544
RightHand  -1.09712 0.198805 -22.6755
LeftUpLeg  4.11088 15.44 26.3089
LeftLeg  4.44526 -18.764 2.52555
LeftFoot  -4.16424 1.6123 -24.9567
LeftToes  -7.27922e-012 9.28972e-011 -9.04533e-012
348
root  3.75406 38.2487 2.70014 21.7327 -84.5393 -25.7377
RightUpLeg  6.0344 -13.658 -20.7551
RightLeg  0.37444 3.54534 -0.63597
RightFoot  5.65098 -3.7106 24.7452
RightToes  -1.28057e-009 0 -3.6325e-017
Spine  8.58369 -0.206436 1.27486
Spine1  -1.01495 0.023097 -0.00852167
HEad  13.3262 -4.19872 -0.0862512
LeftShoulder1  1.87461 -4.24943 -17.5485
LeftArm  20.9472 21.5987 -46.7565
LeftForeArm  17.4903 -30.0083 -5.56591
LeftHand  -1.85494 -2.95916 25.674
RightShoulder  1.41224 1.85901 19.9901
RightArm  5.23792 -18.4377 48.074
RightForeArm  22.0623 12.4483 11.5504
RightHand  -1.06019 -0.0229491 -22.8015
LeftUpLeg  3.60522 15.5571 25.3093
LeftLeg  3.89231 -18.3587 2.42751
LeftFoot  -3.63314 1.71453 -24.7771
LeftToes  -7.27922e-012 9.28972e-011 -9.04533e-012
349
root  3.85642 38.279 2.77333 15.4811 -84.9163 -18.9528
RightUpLeg  5.48374 -13.7294 -21.305
RightLeg  -0.185523 3.5515 -0.993853
RightFoot  6.09809 -3.83336 24.9054
RightToes  -1.28057e-009 0 -3.6325e-017
Spine  8.33816 -0.237727 1.12605
Spine1  -0.954757 -0.016177 -0.211377
HEad  13.279 -4.0671 -0.152708
LeftShoulder1  1.86508 -4.2816 -17.3075
LeftArm  21.9911 21.331 -47.358
LeftForeArm  13.5091 -27.1825 -5.1267
LeftHand  -1.86127 -3.02888 25.5535
RightShoulder  1.40024 1.87232 19.679
RightArm  -0.14039 -18.4925 47.8619
RightForeArm  24.8066 9.91781 12.5042
RightHand  -1.05883 0.0461939 -22.4982
LeftUpLeg  3.34913 15.7006 24.4221
LeftLeg  3.31945 -17.9859 2.17508
LeftFoot  -3.18874 1.80505 -24.7125
LeftToes  -7.27922e-012 9.28972e-011 -9.04533e-012
